<svg id="Calque_1" data-name="Calque 1" xmlns="http://www.w3.org/2000/svg" xmlns:xlink="http://www.w3.org/1999/xlink" viewBox="0 0 266.38 84.75">
    <defs>
        <style>.cls-1{fill:#230066;}.cls-2{fill:#afafaf;}.cls-3{fill:url(#Dégradé_sans_nom_2);}</style>
        <linearGradient id="Dégradé_sans_nom_2" x1="8.03" y1="51.9" x2="92.79" y2="51.9" gradientUnits="userSpaceOnUse">
            <stop offset="0" stop-color="#00dbff"/>
            <stop offset="1" stop-color="#8024ff"/>
        </linearGradient>
    </defs>
    <title>Logo_Full_Sigfox</title>
    <path class="cls-1" d="M134.25,60.44a8,8,0,0,0,3.14-.43,1.67,1.67,0,0,0,.92-1.68,2.05,2.05,0,0,0-1.19-1.7A22.69,22.69,0,0,0,133.5,55a36.77,36.77,0,0,1-3.43-1.46,10.09,10.09,0,0,1-2.62-1.81,7.32,7.32,0,0,1-1.68-2.52,9.3,9.3,0,0,1-.6-3.52,7.6,7.6,0,0,1,3-6.33q3-2.33,8.17-2.33a26.23,26.23,0,0,1,5,.46,23.26,23.26,0,0,1,3.79,1l-1.41,6.27a29.81,29.81,0,0,0-3.06-.87,16.65,16.65,0,0,0-3.7-.38q-3.79,0-3.79,2.11a2.18,2.18,0,0,0,.16.87,1.84,1.84,0,0,0,.65.73,9.11,9.11,0,0,0,1.33.76q.84.41,2.14.9a33.08,33.08,0,0,1,4.38,1.94,10.48,10.48,0,0,1,2.73,2.06,6.37,6.37,0,0,1,1.41,2.46,10.89,10.89,0,0,1,.41,3.13,7.21,7.21,0,0,1-3.16,6.37Q140,67,134.2,67a25.73,25.73,0,0,1-6.3-.65,25.46,25.46,0,0,1-3.49-1.08l1.35-6.54A26.38,26.38,0,0,0,130,60,20.5,20.5,0,0,0,134.25,60.44Z" transform="translate(-8.03 -9.53)"/>
    <path class="cls-1" d="M160.05,29.56A4.42,4.42,0,0,1,158.62,33a5.13,5.13,0,0,1-6.76,0,4.42,4.42,0,0,1-1.43-3.49,4.42,4.42,0,0,1,1.43-3.49,5.13,5.13,0,0,1,6.76,0A4.43,4.43,0,0,1,160.05,29.56Zm-.76,36.67h-8.06V37.78h8.06Z" transform="translate(-8.03 -9.53)"/>
    <path class="cls-1" d="M190.34,62.66q0,7-3.54,10.36t-11,3.38a29.77,29.77,0,0,1-5.19-.46,32.39,32.39,0,0,1-4.81-1.22L167.24,68a23.69,23.69,0,0,0,4,1.19,23.4,23.4,0,0,0,4.73.43q3.46,0,4.9-1.51a5.44,5.44,0,0,0,1.43-3.89v-1a12.91,12.91,0,0,1-2.68.89,14.23,14.23,0,0,1-3,.3q-5.9,0-9-3.49t-3.14-9.76a16,16,0,0,1,1-5.71A12.14,12.14,0,0,1,168.24,41a12.69,12.69,0,0,1,4.57-2.84,17.53,17.53,0,0,1,6.11-1q1.46,0,3,.14t3.06.35q1.51.22,2.89.51t2.46.62ZM172.65,51.08q0,6.76,5.46,6.76a8.06,8.06,0,0,0,2.33-.32,8.82,8.82,0,0,0,1.84-.76V43.89q-.6-.11-1.41-.19T179,43.62a5.55,5.55,0,0,0-4.76,2.11A8.73,8.73,0,0,0,172.65,51.08Z" transform="translate(-8.03 -9.53)"/>
    <path class="cls-1" d="M209.16,24.26a17.67,17.67,0,0,1,4.16.46,20.27,20.27,0,0,1,2.92.89L214.68,32a10.56,10.56,0,0,0-2.35-.73,12.56,12.56,0,0,0-2.35-.24,6.57,6.57,0,0,0-2.46.41,3.8,3.8,0,0,0-1.57,1.11,4.28,4.28,0,0,0-.81,1.68,8.68,8.68,0,0,0-.24,2.11v1.41h10v6.71h-10V66.23h-8.06v-30a12.13,12.13,0,0,1,3.11-8.76Q203,24.26,209.16,24.26Z" transform="translate(-8.03 -9.53)"/>
    <path class="cls-1" d="M244.75,51.95a18.5,18.5,0,0,1-1,6.14A13.33,13.33,0,0,1,241,62.85a12.65,12.65,0,0,1-4.41,3.06A14.72,14.72,0,0,1,230.8,67a14.57,14.57,0,0,1-5.71-1.08,12.64,12.64,0,0,1-4.41-3.06,14,14,0,0,1-2.87-4.76,17.61,17.61,0,0,1-1-6.14,17,17,0,0,1,1.05-6.11,13.86,13.86,0,0,1,2.92-4.71,13.12,13.12,0,0,1,4.43-3A14.28,14.28,0,0,1,230.8,37a14.43,14.43,0,0,1,5.65,1.08,12.85,12.85,0,0,1,4.41,3,13.76,13.76,0,0,1,2.87,4.71A17.41,17.41,0,0,1,244.75,51.95Zm-8.22,0A10.13,10.13,0,0,0,235,46.08a4.86,4.86,0,0,0-4.25-2.14,4.93,4.93,0,0,0-4.27,2.14A10,10,0,0,0,225,51.95a10.25,10.25,0,0,0,1.51,5.92,4.89,4.89,0,0,0,4.27,2.19A4.83,4.83,0,0,0,235,57.87,10.4,10.4,0,0,0,236.53,51.95Z" transform="translate(-8.03 -9.53)"/>
    <path class="cls-1" d="M264.47,51.9l5.1-7.25,4.84-6.88h-8.71l-5.59,8-5.59-8h-8.71l4.84,6.88,5.1,7.25-5.1,7.25L245.81,66h8.71l5.59-8,5.59,8h8.71l-4.84-6.88Z" transform="translate(-8.03 -9.53)"/>
    <polygon class="cls-2" points="51.04 24.43 51.04 24.43 51.04 24.43 51.04 24.43"/>
    <polygon class="cls-2" points="51.04 74.18 51.04 74.18 51.04 74.18 51.04 74.18"/>
    <path class="cls-1" d="M107.92,11.71C101,4.84,79.85,14.71,59.07,34q2.38,2.2,4.74,4.55A148.27,148.27,0,0,1,83.64,62.73C104.21,41.28,115,18.83,107.92,11.71Z" transform="translate(-8.03 -9.53)"/>
    <path class="cls-1" d="M54.33,38.51C32.14,60.7,20.14,84.7,27.54,92.09h0c4.94,4.94,17.27,1.23,31.53-8.38V34Q56.7,36.15,54.33,38.51Z" transform="translate(-8.03 -9.53)"/>
    <path class="cls-3" d="M63.81,38.51Q61.45,36.15,59.07,34C38.3,14.71,17.09,4.84,10.22,11.71h0c-7.11,7.11,3.71,29.57,24.28,51A148.27,148.27,0,0,1,54.33,38.51q2.36-2.36,4.74-4.55V83.71C73.33,93.32,85.66,97,90.6,92.09,98,84.7,86,60.7,63.81,38.51Z" transform="translate(-8.03 -9.53)"/>
</svg>